<svg xmlns="http://www.w3.org/2000/svg" viewBox="0 0 800 600">
  <defs>
    <linearGradient id="buildingGradient" x1="0%" y1="0%" x2="100%" y2="100%">
      <stop offset="0%" stop-color="#f8f9fa" />
      <stop offset="100%" stop-color="#e9ecef" />
    </linearGradient>
    <linearGradient id="glassGradient" x1="0%" y1="0%" x2="100%" y2="100%">
      <stop offset="0%" stop-color="#00a0e9" stop-opacity="0.3" />
      <stop offset="100%" stop-color="#0056b3" stop-opacity="0.3" />
    </linearGradient>
    <linearGradient id="groundGradient" x1="0%" y1="0%" x2="100%" y2="0%">
      <stop offset="0%" stop-color="#6c757d" />
      <stop offset="100%" stop-color="#495057" />
    </linearGradient>
  </defs>
  
  <!-- Sky -->
  <rect width="800" height="600" fill="#f8f9fa" />
  
  <!-- Ground -->
  <rect x="0" y="500" width="800" height="100" fill="url(#groundGradient)" />
  
  <!-- Convention Center Main Building -->
  <g>
    <!-- Main Structure -->
    <path d="M150,500 L150,200 L650,200 L650,500 Z" fill="url(#buildingGradient)" stroke="#dee2e6" stroke-width="2" />
    
    <!-- Entrance -->
    <path d="M350,500 L350,350 L450,350 L450,500 Z" fill="#dee2e6" stroke="#ced4da" stroke-width="2" />
    <path d="M370,500 L370,370 L430,370 L430,500 Z" fill="#ffffff" stroke="#ced4da" stroke-width="1" />
    
    <!-- Steps -->
    <path d="M330,500 L330,490 L470,490 L470,500 Z" fill="#ced4da" />
    <path d="M340,500 L340,480 L460,480 L460,500 Z" fill="#ced4da" />
    
    <!-- Glass Dome -->
    <ellipse cx="400" cy="200" rx="150" ry="50" fill="url(#glassGradient)" stroke="#dee2e6" stroke-width="2" />
    
    <!-- Windows -->
    <g fill="url(#glassGradient)" stroke="#dee2e6" stroke-width="1">
      <!-- Left Windows -->
      <rect x="180" y="250" width="40" height="60" />
      <rect x="240" y="250" width="40" height="60" />
      <rect x="180" y="330" width="40" height="60" />
      <rect x="240" y="330" width="40" height="60" />
      <rect x="180" y="410" width="40" height="60" />
      <rect x="240" y="410" width="40" height="60" />
      
      <!-- Right Windows -->
      <rect x="520" y="250" width="40" height="60" />
      <rect x="580" y="250" width="40" height="60" />
      <rect x="520" y="330" width="40" height="60" />
      <rect x="580" y="330" width="40" height="60" />
      <rect x="520" y="410" width="40" height="60" />
      <rect x="580" y="410" width="40" height="60" />
    </g>
    
    <!-- Decorative Elements -->
    <rect x="150" y="230" width="500" height="10" fill="#ced4da" />
    <rect x="150" y="310" width="500" height="10" fill="#ced4da" />
    <rect x="150" y="390" width="500" height="10" fill="#ced4da" />
    <rect x="150" y="470" width="500" height="10" fill="#ced4da" />
  </g>
  
  <!-- Flags -->
  <g>
    <rect x="100" y="180" width="5" height="320" fill="#adb5bd" />
    <rect x="695" y="180" width="5" height="320" fill="#adb5bd" />
    <rect x="100" y="180" width="30" height="20" fill="#0056b3" />
    <rect x="670" y="180" width="30" height="20" fill="#0056b3" />
  </g>
  
  <!-- People -->
  <g>
    <!-- Person 1 -->
    <circle cx="300" cy="520" r="10" fill="#6c757d" />
    <rect x="297" y="530" width="6" height="15" fill="#6c757d" />
    <line x1="297" y1="535" x2="290" y2="545" stroke="#6c757d" stroke-width="2" />
    <line x1="303" y1="535" x2="310" y2="545" stroke="#6c757d" stroke-width="2" />
    
    <!-- Person 2 -->
    <circle cx="330" cy="530" r="10" fill="#6c757d" />
    <rect x="327" y="540" width="6" height="15" fill="#6c757d" />
    <line x1="327" y1="545" x2="320" y2="555" stroke="#6c757d" stroke-width="2" />
    <line x1="333" y1="545" x2="340" y2="555" stroke="#6c757d" stroke-width="2" />
    
    <!-- Person 3 -->
    <circle cx="500" cy="520" r="10" fill="#6c757d" />
    <rect x="497" y="530" width="6" height="15" fill="#6c757d" />
    <line x1="497" y1="535" x2="490" y2="545" stroke="#6c757d" stroke-width="2" />
    <line x1="503" y1="535" x2="510" y2="545" stroke="#6c757d" stroke-width="2" />
    
    <!-- Person 4 -->
    <circle cx="530" cy="530" r="10" fill="#6c757d" />
    <rect x="527" y="540" width="6" height="15" fill="#6c757d" />
    <line x1="527" y1="545" x2="520" y2="555" stroke="#6c757d" stroke-width="2" />
    <line x1="533" y1="545" x2="540" y2="555" stroke="#6c757d" stroke-width="2" />
  </g>
  
  <!-- Trees -->
  <g>
    <circle cx="100" cy="480" r="20" fill="#28a745" />
    <rect x="97" y="480" width="6" height="20" fill="#6c757d" />
    
    <circle cx="700" cy="480" r="20" fill="#28a745" />
    <rect x="697" y="480" width="6" height="20" fill="#6c757d" />
    
    <circle cx="50" cy="490" r="15" fill="#28a745" />
    <rect x="47" y="490" width="6" height="15" fill="#6c757d" />
    
    <circle cx="750" cy="490" r="15" fill="#28a745" />
    <rect x="747" y="490" width="6" height="15" fill="#6c757d" />
  </g>
  
  <!-- Clouds -->
  <g fill="white" opacity="0.8">
    <ellipse cx="200" cy="100" rx="60" ry="30" />
    <ellipse cx="600" cy="120" rx="70" ry="35" />
    <ellipse cx="400" cy="80" rx="50" ry="25" />
  </g>
</svg>