<svg xmlns="http://www.w3.org/2000/svg" viewBox="0 0 300 300" width="300" height="300">
  <defs>
    <linearGradient id="bgGradient2" x1="0%" y1="0%" x2="100%" y2="100%">
      <stop offset="0%" style="stop-color:#ff6b6b;stop-opacity:1" />
      <stop offset="100%" style="stop-color:#ffa500;stop-opacity:1" />
    </linearGradient>
  </defs>
  
  <!-- Background -->
  <rect width="300" height="300" fill="url(#bgGradient2)"/>
  
  <!-- Head -->
  <circle cx="150" cy="120" r="50" fill="#d4a574"/>
  
  <!-- Hair -->
  <path d="M105 95 Q150 65 195 95 Q195 75 150 70 Q105 75 105 95" fill="#2F1B14"/>
  
  <!-- Eyes -->
  <circle cx="135" cy="110" r="3" fill="#000"/>
  <circle cx="165" cy="110" r="3" fill="#000"/>
  
  <!-- Glasses -->
  <circle cx="135" cy="110" r="12" stroke="#333" stroke-width="2" fill="none"/>
  <circle cx="165" cy="110" r="12" stroke="#333" stroke-width="2" fill="none"/>
  <line x1="147" y1="110" x2="153" y2="110" stroke="#333" stroke-width="2"/>
  
  <!-- Nose -->
  <circle cx="150" cy="125" r="2" fill="#c49464"/>
  
  <!-- Mouth -->
  <path d="M140 135 Q150 145 160 135" stroke="#000" stroke-width="2" fill="none"/>
  
  <!-- Body -->
  <rect x="125" y="170" width="50" height="80" fill="#4a4a4a" rx="10"/>
  
  <!-- Arms -->
  <rect x="100" y="180" width="20" height="50" fill="#d4a574" rx="10"/>
  <rect x="180" y="180" width="20" height="50" fill="#d4a574" rx="10"/>
  
  <!-- Professional attire details -->
  <rect x="130" y="175" width="40" height="5" fill="#0056b3"/>
  <circle cx="150" cy="190" r="2" fill="#silver"/>
  
  <!-- Name placeholder -->
  <rect x="50" y="260" width="200" height="30" fill="rgba(255,255,255,0.9)" rx="5"/>
  <text x="150" y="280" text-anchor="middle" fill="#333" font-family="Arial" font-size="14" font-weight="bold">Prof. Speaker Two</text>
</svg>