<svg xmlns="http://www.w3.org/2000/svg" viewBox="0 0 300 300" width="300" height="300">
  <defs>
    <linearGradient id="bgGradient1" x1="0%" y1="0%" x2="100%" y2="100%">
      <stop offset="0%" style="stop-color:#0056b3;stop-opacity:1" />
      <stop offset="100%" style="stop-color:#00a0e9;stop-opacity:1" />
    </linearGradient>
  </defs>
  
  <!-- Background -->
  <rect width="300" height="300" fill="url(#bgGradient1)"/>
  
  <!-- Head -->
  <circle cx="150" cy="120" r="50" fill="#fdbcb4"/>
  
  <!-- Hair -->
  <path d="M100 100 Q150 70 200 100 Q200 80 150 75 Q100 80 100 100" fill="#8B4513"/>
  
  <!-- Eyes -->
  <circle cx="135" cy="110" r="3" fill="#000"/>
  <circle cx="165" cy="110" r="3" fill="#000"/>
  
  <!-- Nose -->
  <circle cx="150" cy="125" r="2" fill="#f4a688"/>
  
  <!-- Mouth -->
  <path d="M140 135 Q150 145 160 135" stroke="#000" stroke-width="2" fill="none"/>
  
  <!-- Body -->
  <rect x="125" y="170" width="50" height="80" fill="#333" rx="10"/>
  
  <!-- Arms -->
  <rect x="100" y="180" width="20" height="50" fill="#fdbcb4" rx="10"/>
  <rect x="180" y="180" width="20" height="50" fill="#fdbcb4" rx="10"/>
  
  <!-- Professional attire details -->
  <rect x="130" y="175" width="40" height="5" fill="#ff6b6b"/>
  <circle cx="150" cy="190" r="2" fill="#FFD700"/>
  
  <!-- Name placeholder -->
  <rect x="50" y="260" width="200" height="30" fill="rgba(255,255,255,0.9)" rx="5"/>
  <text x="150" y="280" text-anchor="middle" fill="#333" font-family="Arial" font-size="14" font-weight="bold">Dr. Speaker One</text>
</svg>