<svg xmlns="http://www.w3.org/2000/svg" viewBox="0 0 300 300" width="300" height="300">
  <defs>
    <linearGradient id="bgGradient4" x1="0%" y1="0%" x2="100%" y2="100%">
      <stop offset="0%" style="stop-color:#6f42c1;stop-opacity:1" />
      <stop offset="100%" style="stop-color:#e83e8c;stop-opacity:1" />
    </linearGradient>
  </defs>
  
  <!-- Background -->
  <rect width="300" height="300" fill="url(#bgGradient4)"/>
  
  <!-- Head -->
  <circle cx="150" cy="120" r="50" fill="#8d5524"/>
  
  <!-- Hair (short professional style) -->
  <path d="M105 85 Q150 55 195 85 Q195 65 150 60 Q105 65 105 85" fill="#1a1a1a"/>
  
  <!-- Eyes -->
  <circle cx="135" cy="110" r="3" fill="#000"/>
  <circle cx="165" cy="110" r="3" fill="#000"/>
  
  <!-- Eyebrows -->
  <path d="M125 100 Q135 95 145 100" stroke="#1a1a1a" stroke-width="2" fill="none"/>
  <path d="M155 100 Q165 95 175 100" stroke="#1a1a1a" stroke-width="2" fill="none"/>
  
  <!-- Nose -->
  <circle cx="150" cy="125" r="2" fill="#7a4a1f"/>
  
  <!-- Mouth -->
  <path d="M140 135 Q150 145 160 135" stroke="#000" stroke-width="2" fill="none"/>
  
  <!-- Beard -->
  <path d="M125 140 Q150 155 175 140 Q175 160 150 165 Q125 160 125 140" fill="#1a1a1a"/>
  
  <!-- Body -->
  <rect x="125" y="170" width="50" height="80" fill="#17a2b8" rx="10"/>
  
  <!-- Arms -->
  <rect x="100" y="180" width="20" height="50" fill="#8d5524" rx="10"/>
  <rect x="180" y="180" width="20" height="50" fill="#8d5524" rx="10"/>
  
  <!-- Professional attire details -->
  <rect x="130" y="175" width="40" height="5" fill="#28a745"/>
  <circle cx="150" cy="190" r="2" fill="#ffc107"/>
  
  <!-- Name placeholder -->
  <rect x="50" y="260" width="200" height="30" fill="rgba(255,255,255,0.9)" rx="5"/>
  <text x="150" y="280" text-anchor="middle" fill="#333" font-family="Arial" font-size="14" font-weight="bold">Prof. Speaker Four</text>
</svg>